<svg width="48" height="48" viewBox="0 0 48 48" fill="none" xmlns="http://www.w3.org/2000/svg">
<path d="M42.16 14C41.8144 13.4012 41.3196 12.9023 40.7237 12.5517C40.1278 12.2012 39.4512 12.0111 38.76 12H13.16L12 7.48C11.8828 7.04367 11.6213 6.65989 11.2582 6.39114C10.895 6.1224 10.4515 5.98453 10 6H6C5.46957 6 4.96086 6.21071 4.58579 6.58578C4.21071 6.96086 4 7.46957 4 8C4 8.53043 4.21071 9.03914 4.58579 9.41421C4.96086 9.78928 5.46957 10 6 10H8.48L14 30.52C14.1172 30.9563 14.3787 31.3401 14.7418 31.6089C15.105 31.8776 15.5485 32.0155 16 32H34C34.3693 31.9989 34.7311 31.8955 35.0453 31.7014C35.3595 31.5072 35.6138 31.2298 35.78 30.9L42.34 17.78C42.6243 17.184 42.7567 16.5269 42.7253 15.8674C42.6939 15.2078 42.4997 14.5663 42.16 14Z" fill="#43486A"/>
<path d="M15 42C16.6569 42 18 40.6569 18 39C18 37.3431 16.6569 36 15 36C13.3431 36 12 37.3431 12 39C12 40.6569 13.3431 42 15 42Z" fill="#43486A"/>
<path d="M35 42C36.6569 42 38 40.6569 38 39C38 37.3431 36.6569 36 35 36C33.3431 36 32 37.3431 32 39C32 40.6569 33.3431 42 35 42Z" fill="#43486A"/>
<path d="M38 13C38 19.0751 33.0751 24 27 24C20.9249 24 16 19.0751 16 13C16 6.92487 20.9249 2 27 2C33.0751 2 38 6.92487 38 13Z" fill="#FEFFFF"/>
<path d="M27 0C24.6266 0 22.3066 0.703788 20.3332 2.02236C18.3598 3.34094 16.8217 5.21508 15.9135 7.4078C15.0052 9.60051 14.7676 12.0133 15.2306 14.3411C15.6936 16.6689 16.8365 18.807 18.5147 20.4853C20.193 22.1635 22.3311 23.3064 24.6589 23.7694C26.9867 24.2324 29.3995 23.9948 31.5922 23.0866C33.7849 22.1783 35.6591 20.6402 36.9776 18.6668C38.2962 16.6934 39 14.3734 39 12C38.9971 8.8183 37.7318 5.76777 35.482 3.51797C33.2322 1.26817 30.1817 0.00294193 27 0ZM27 21.3333C25.154 21.3333 23.3495 20.7859 21.8147 19.7604C20.2798 18.7348 19.0835 17.2772 18.3771 15.5717C17.6707 13.8663 17.4859 11.9896 17.846 10.1792C18.2061 8.36867 19.0951 6.70563 20.4003 5.40034C21.7056 4.09505 23.3687 3.20613 25.1792 2.846C26.9896 2.48587 28.8663 2.67071 30.5717 3.37712C32.2772 4.08354 33.7348 5.27982 34.7604 6.81468C35.7859 8.34953 36.3333 10.154 36.3333 12C36.3304 14.4744 35.3461 16.8467 33.5964 18.5964C31.8467 20.3461 29.4745 21.3304 27 21.3333V21.3333ZM30.2778 11.6222L27 16H29.6667C30.0203 16 30.3594 16.1405 30.6095 16.3905C30.8595 16.6406 31 16.9797 31 17.3333C31 17.687 30.8595 18.0261 30.6095 18.2761C30.3594 18.5262 30.0203 18.6667 29.6667 18.6667H24.3333C24.19 18.6662 24.0476 18.6437 23.9111 18.6C23.7093 18.5311 23.5268 18.4151 23.3787 18.2617C23.2306 18.1083 23.121 17.9219 23.0592 17.7178C22.9973 17.5138 22.9849 17.2979 23.0229 17.0881C23.0609 16.8783 23.1483 16.6805 23.2778 16.5111L28.1222 10.0556C28.2588 9.83931 28.3319 9.58908 28.3333 9.33333C28.337 9.02316 28.2324 8.72142 28.0376 8.48005C27.8428 8.23868 27.5699 8.07279 27.2659 8.01094C26.962 7.94909 26.646 7.99516 26.3723 8.14122C26.0986 8.28727 25.8845 8.52416 25.7667 8.81111C25.6197 9.12162 25.3586 9.36344 25.0377 9.48613C24.7168 9.60883 24.361 9.60294 24.0443 9.46969C23.7277 9.33644 23.4747 9.08612 23.3381 8.77091C23.2015 8.45571 23.1918 8.09994 23.3111 7.77778C23.6687 6.92498 24.3106 6.22241 25.1278 5.7896C25.945 5.35678 26.8868 5.22046 27.7932 5.40382C28.6995 5.58719 29.5144 6.07891 30.099 6.79534C30.6837 7.51176 31.0021 8.40862 31 9.33333C31.0041 10.1307 30.7637 10.9101 30.3111 11.5667L30.2778 11.6222Z" fill="#43486A"/>
</svg>
