<svg width="48" height="48" viewBox="0 0 48 48" fill="none" xmlns="http://www.w3.org/2000/svg">
<path d="M42.16 14C41.8144 13.4012 41.3196 12.9023 40.7237 12.5517C40.1278 12.2012 39.4512 12.0111 38.76 12H13.16L12 7.48C11.8828 7.04367 11.6213 6.65989 11.2582 6.39114C10.895 6.1224 10.4515 5.98453 10 6H6C5.46957 6 4.96086 6.21071 4.58579 6.58578C4.21071 6.96086 4 7.46957 4 8C4 8.53043 4.21071 9.03914 4.58579 9.41421C4.96086 9.78928 5.46957 10 6 10H8.48L14 30.52C14.1172 30.9563 14.3787 31.3401 14.7418 31.6089C15.105 31.8776 15.5485 32.0155 16 32H34C34.3693 31.9989 34.7311 31.8955 35.0453 31.7014C35.3595 31.5072 35.6138 31.2298 35.78 30.9L42.34 17.78C42.6243 17.184 42.7567 16.5269 42.7253 15.8674C42.6939 15.2078 42.4997 14.5663 42.16 14Z" fill="#43486A"/>
<path d="M15 42C16.6569 42 18 40.6569 18 39C18 37.3431 16.6569 36 15 36C13.3431 36 12 37.3431 12 39C12 40.6569 13.3431 42 15 42Z" fill="#43486A"/>
<path d="M35 42C36.6569 42 38 40.6569 38 39C38 37.3431 36.6569 36 35 36C33.3431 36 32 37.3431 32 39C32 40.6569 33.3431 42 35 42Z" fill="#43486A"/>
</svg>
